<?xml version="1.0" encoding="UTF-8" standalone="no"?>
<!DOCTYPE svg PUBLIC "-//W3C//DTD SVG 1.1//EN" "http://www.w3.org/Graphics/SVG/1.1/DTD/svg11.dtd">
<svg width="100%" height="100%" viewBox="0 0 1000 1000" version="1.1" xmlns="http://www.w3.org/2000/svg" xmlns:xlink="http://www.w3.org/1999/xlink" xml:space="preserve" xmlns:serif="http://www.serif.com/" style="fill-rule:evenodd;clip-rule:evenodd;stroke-linejoin:round;stroke-miterlimit:2;">
    <g transform="matrix(0.60859,-0.793485,0.793485,0.60859,-173.203,583.189)">
        <path d="M189.334,379.035C170.738,359.321 163.938,353.717 155.935,349.425C151.691,347.149 149.467,344.175 147.236,340.677C144.481,336.359 141.645,331.135 132.768,325.805C131.348,324.953 130.888,323.108 131.74,321.689C132.592,320.269 134.437,319.809 135.856,320.661C144.299,325.73 147.971,330.697 150.781,335.063C153.116,338.693 154.63,341.916 158.771,344.137C168.169,349.177 176.079,355.84 201.944,383.745C205.611,384.844 209.807,385.952 214.836,387.208C222.452,389.11 227.227,391.697 231.503,394.154C235.337,396.358 238.713,398.469 243.766,399.673C263.328,404.333 270.722,409.555 276.293,413.568C279.54,415.908 282.048,417.841 286.543,418.819C302.118,422.204 307.103,422.857 330.471,426.704C307.463,401.14 298.021,388.74 293.408,361.395C291.766,351.658 293.73,342.771 299.45,338.257C299.451,338.256 299.451,338.256 299.452,338.255C300.717,337.257 302.177,336.446 303.841,335.878C293.298,321.67 284.231,303.923 239.001,248.52C237.954,247.237 238.145,245.346 239.428,244.299C240.71,243.252 242.602,243.443 243.649,244.725C291.967,303.912 299.03,320.137 310.693,334.969C312.653,335.047 314.791,335.375 317.116,335.993C318.1,336.255 318.884,336.998 319.199,337.966C324.975,355.754 331.16,361.966 338.902,368.704C338.951,368.745 338.999,368.787 339.047,368.83C340.285,369.906 341.563,370.998 342.886,372.154C343.735,372.896 344.528,373.606 345.277,374.293C345.288,374.303 345.298,374.313 345.309,374.323C348.601,377.344 351.033,379.904 353.583,382.656C353.711,382.773 353.83,382.901 353.937,383.039C357.565,386.963 361.518,391.333 368.568,398.006C381.987,410.708 404.072,423.086 430.472,454.858C456.456,486.129 461.354,481.717 489.37,500.302C518.019,519.306 533.513,520.617 580.422,536.834C581.529,537.128 593.595,540.291 603.696,541.233C607.807,541.616 611.563,541.699 613.891,540.852C626.894,536.125 636.62,539.075 646.397,542.92C649.837,544.273 653.281,545.752 656.915,546.958C657.134,547.004 657.348,547.073 657.553,547.167C662.947,548.897 668.778,549.985 675.645,549.151C676.391,549.061 677.101,549.012 677.776,549.002C677.849,549 677.921,548.999 677.993,549C680.852,548.991 683.071,549.673 684.737,550.734C688.349,553.036 689.743,557.259 688.95,561.997C688.254,566.156 685.807,570.706 682.123,574.121C717.82,585.134 760.179,594.003 814.54,595.29C816.195,595.33 817.507,596.705 817.468,598.361C817.429,600.016 816.053,601.328 814.398,601.289C756.382,599.915 711.917,590.006 674.625,578.033C674.48,577.997 674.337,577.951 674.198,577.895C641.617,567.405 614.51,555.353 588.604,546.074C585.141,544.834 581.831,543.669 578.663,542.572C578.606,542.553 578.549,542.533 578.492,542.512C530.79,525.993 515.127,524.588 486.053,505.302C457.382,486.283 452.449,490.695 425.857,458.693C399.682,427.191 377.748,414.957 364.443,402.363C357.724,396.004 353.839,391.747 350.353,387.967C340.147,388.92 327.056,395.194 327.056,395.194C325.56,395.905 323.769,395.268 323.058,393.772C322.347,392.277 322.984,390.486 324.479,389.775C324.479,389.775 325.036,389.512 326.014,389.083C325.352,389.035 324.701,388.769 324.18,388.28C323.349,387.502 323.06,386.36 323.329,385.33C322.826,385.334 322.316,385.212 321.846,384.95C320.4,384.143 319.881,382.314 320.688,380.868C320.688,380.868 324.093,374.685 331.669,370.288C329.965,368.713 328.334,367.091 326.76,365.292C325.13,366.7 323.365,368.001 321.523,368.813C319.19,369.841 316.734,370.156 314.212,369.35C311.947,368.626 309.538,366.938 307.191,363.616C304.828,360.273 302.403,355.066 300.043,347.264C298.592,350.826 298.499,355.504 299.325,360.397C304.038,388.343 314.252,399.879 339.603,427.863C341.76,427.631 345.829,427.461 351.847,428.29C361.137,420.585 371.436,420.324 371.436,420.324C373.091,420.275 374.474,421.578 374.524,423.233C374.574,424.888 373.27,426.272 371.615,426.322C371.615,426.322 366.21,426.515 360.152,429.859C363.986,430.765 368.318,432.021 373.152,433.749C374.711,434.306 375.525,436.024 374.968,437.583C374.411,439.142 372.692,439.956 371.133,439.399C363.5,436.671 357.256,435.198 352.377,434.432C352.329,434.425 352.28,434.417 352.232,434.409C343.454,433.049 339.141,433.988 339.141,433.988C338.757,434.078 338.359,434.091 337.965,434.026C306.921,428.858 302.664,428.463 285.268,424.682C279.82,423.497 276.722,421.272 272.786,418.437C267.581,414.688 260.651,409.864 242.375,405.51C237.76,404.41 234.353,402.688 230.936,400.749C226.354,398.148 221.748,395.118 213.382,393.029C193.251,388.001 185.822,385.156 173.496,376.535C168.949,373.355 162.661,372.962 157.492,374.124C160.798,376.919 162.905,379.973 163.853,383.394C165.041,387.679 164.44,392.675 161.66,398.718C162.798,399.382 164.02,400.064 165.331,400.765C167.066,401.692 168.721,402.598 170.305,403.484C172.776,398.164 174.211,392.75 174.211,392.75C174.636,391.15 176.28,390.196 177.88,390.621C179.481,391.046 180.435,392.691 180.009,394.291C180.009,394.291 178.353,400.507 175.523,406.479C191.647,415.98 199.952,423.218 213.042,430.795C218.709,420.134 221.24,410.242 221.24,410.242C221.649,408.638 223.284,407.668 224.889,408.078C225.539,408.244 226.085,408.611 226.477,409.096C228.061,408.899 229.536,409.985 229.804,411.575C229.804,411.575 232.163,425.72 227.969,438.597C246.415,447.655 263.587,454.869 263.587,454.869C263.797,454.957 263.997,455.07 264.182,455.203C264.182,455.203 266.278,456.744 267.4,458.184C267.65,458.504 267.861,458.823 268.027,459.129L268.392,459.981L268.587,461.171L268.457,462.175L268.163,462.915L267.711,463.574L266.885,464.289L266.052,464.701C265.316,464.971 264.071,465.168 262.115,464.947C252.691,463.883 252.862,463.566 244.778,465.573C243.171,465.972 241.542,464.992 241.143,463.385C240.744,461.778 241.725,460.149 243.332,459.75C249.995,458.096 251.66,457.814 256.265,458.255C253.899,457.226 250.803,455.864 247.214,454.25C240.658,457.561 233.815,461.471 229.162,466.363C224.785,470.966 222.476,476.489 225.029,483.31C226.633,487.598 228.27,490.625 230.653,492.782C233.003,494.91 236.056,496.149 240.325,497.103C245.03,498.154 251.077,498.816 259.068,499.586C259.143,499.592 259.219,499.599 259.294,499.608C262.162,499.884 265.279,500.174 268.673,500.501C270.321,500.66 271.53,502.127 271.371,503.775C271.212,505.423 269.745,506.632 268.097,506.473C266.785,506.347 265.514,506.225 264.281,506.108C273.042,521.054 278.761,522.224 284.301,524.68C289.033,526.779 293.704,529.635 299.414,540.379C303.461,547.995 308.721,556.016 314.989,561.657C318.886,565.163 323.16,567.747 327.8,568.537C345.413,571.535 355.221,575.618 363.56,579.402C371.487,583 378.007,586.343 389.16,588.066C395.858,589.101 400.991,589.595 405.318,589.968C405.588,589.955 405.862,589.977 406.13,590.038C419.542,591.18 425.316,591.38 447.655,604.078C464.501,613.654 493.735,631.132 521.248,644.865C521.658,644.971 522.04,645.163 522.368,645.423C529.06,648.744 535.638,651.833 541.899,654.522C542.299,654.603 542.685,654.765 543.027,655.004C551.738,658.701 559.803,661.593 566.661,663.218C566.839,663.243 567.015,663.284 567.185,663.34C569.23,663.81 571.163,664.163 572.971,664.388C574.573,664.588 575.723,666.019 575.59,667.613C582.262,662.044 587.417,658.889 591.369,657.235C596.813,654.956 600.411,655.327 602.743,656.308C603.373,656.572 603.927,656.888 604.416,657.234C609.92,647.346 617.11,642.036 623.313,640.364C628.85,638.871 633.76,640.139 636.863,643.388C640.268,646.953 640.642,650.79 638.329,655.309C637.23,657.454 635.366,659.819 632.83,662.464C632.646,662.727 632.419,662.96 632.158,663.154C629.452,665.903 626.055,668.948 622.068,672.355C622.004,672.412 621.938,672.468 621.872,672.522C621.073,673.203 620.251,673.899 619.407,674.61C627.422,677.331 635.145,673.095 641.816,664.971C652.361,652.13 667.759,654.994 673.253,665.336C675.022,668.665 674.408,673.367 671.271,678.679C671.132,678.914 670.988,679.151 670.839,679.389C670.81,679.437 670.781,679.485 670.75,679.532C667.847,684.14 663.146,689.345 657.375,694.554C657.215,694.736 657.036,694.897 656.841,695.033C653.487,698.027 649.787,701.016 645.88,703.888C654.999,703.855 661.142,704.726 665.22,706.017C669.685,707.43 672.026,709.447 673.236,711.387C673.916,712.477 674.283,713.585 674.425,714.668C694.521,704.603 708.165,710.386 714.171,717.013C715.811,718.823 716.907,720.747 717.519,722.57C721.832,722.908 726.89,724.516 732.181,726.559C740.769,729.877 750.059,734.361 757.529,734.848C759.181,734.956 760.435,736.384 760.328,738.037C760.22,739.689 758.791,740.943 757.139,740.835C750.434,740.398 742.328,737.101 734.466,733.924C728.398,731.472 722.505,729.049 717.65,728.581C716.669,731.065 714.061,733.72 710.248,735.899C703.154,739.95 691.876,742.656 682.656,741.148C682.474,741.133 682.292,741.102 682.114,741.054C680.821,740.817 679.572,740.494 678.385,740.078C668.277,736.536 652.33,736.845 639.256,733.169C630.498,730.707 622.99,726.524 618.699,718.928C613.067,720.614 608.29,720.868 604.137,720.236C596.462,719.069 590.783,714.846 585.683,710.373C582.662,707.723 579.861,704.998 576.86,703.009C574.312,701.32 571.622,700.183 568.418,700.381C560.256,702.216 551.933,702.919 543.898,701.912C529.642,700.126 521.429,694.817 513.675,688.146C506.449,681.931 499.663,674.438 488.058,667.763C474.8,660.137 468.29,653.077 461.259,644.795C451.195,632.94 439.992,618.506 404.43,595.86C400.13,595.506 395.015,595.042 388.244,593.996C378.724,592.525 372.358,589.977 365.863,587.047C356.628,582.881 347.115,577.911 326.793,574.452C321.088,573.48 315.767,570.428 310.976,566.117C304.212,560.03 298.483,551.414 294.115,543.195C288.175,532.018 283.701,530.987 278.619,528.788C272.865,526.298 266.313,522.634 257.005,505.408C249.417,504.66 243.598,503.982 239.017,502.959C233.516,501.729 229.654,499.972 226.626,497.23C223.631,494.518 221.426,490.802 219.409,485.413C215.926,476.105 218.84,468.51 224.815,462.228C228.912,457.921 234.532,454.259 240.304,451.103C234.932,448.625 228.958,445.795 222.921,442.796C222.902,442.787 222.884,442.778 222.865,442.768C221.267,441.974 219.664,441.168 218.067,440.353C216.227,439.414 214.49,438.487 212.834,437.568C212.789,437.545 212.746,437.521 212.702,437.496C212.686,437.487 212.67,437.477 212.654,437.468C197.429,428.991 189.016,421.123 170.157,410.294C170.145,410.287 170.132,410.281 170.119,410.274C170.074,410.249 170.03,410.223 169.986,410.196C167.661,408.863 165.177,407.486 162.503,406.056C160.24,404.847 158.216,403.675 156.409,402.539C156.383,402.526 156.357,402.513 156.331,402.499C156.17,402.413 156.021,402.315 155.882,402.206C146.469,396.187 143.136,391.196 142.26,387.016C141.495,383.371 142.484,380.108 143.644,376.914C144.388,374.868 146.113,372.928 148.527,371.358C149.039,370.679 149.8,370.27 150.605,370.184C151.639,369.677 152.759,369.232 153.95,368.863C160.992,366.68 170.356,367.017 176.935,371.619C181.435,374.766 185.253,377.092 189.334,379.035ZM309.108,340.954C307.452,341.025 306.008,341.369 304.767,341.968C306.775,349.382 308.806,354.615 310.852,358.194C312.658,361.354 314.301,363.08 316.039,363.635C317.439,364.083 318.768,363.581 320.03,362.846C321.1,362.223 322.12,361.411 323.082,360.556C319.884,355.899 316.907,349.948 314.023,341.422C312.391,341.08 310.899,340.923 309.543,340.942C309.398,340.957 309.253,340.961 309.108,340.954ZM337.105,375.08C336.892,374.896 336.68,374.713 336.469,374.531C333.543,375.93 331.262,377.707 329.582,379.33C331.688,377.811 334.27,376.226 337.105,375.08ZM345.343,382.675C344.393,381.717 343.392,380.737 342.296,379.709C335.384,381.131 329.476,387.041 328.547,388.008C332.594,386.346 339.088,383.93 345.343,382.675ZM654.596,552.471C651.024,551.266 647.607,549.844 644.201,548.504C635.697,545.159 627.252,542.379 615.941,546.491C614.257,547.103 611.983,547.408 609.371,547.464C629.402,555.236 650.693,564 675.072,571.891C679.575,569.421 682.617,564.643 683.103,560.511C683.299,558.845 683.101,557.285 682.086,556.255C681.306,555.464 680.142,555.057 678.585,554.997C673.636,557.291 669.063,559.012 664.475,558.264C661.277,557.743 657.998,556.093 654.596,552.471ZM156.552,395.468C158.344,391.384 158.9,387.986 158.071,384.996C157.187,381.809 154.755,379.225 151.047,376.781C150.204,377.415 149.583,378.139 149.283,378.964C148.496,381.131 147.613,383.312 148.132,385.785C148.518,387.626 149.698,389.566 152.029,391.809C153.237,392.972 154.729,394.187 156.552,395.468ZM224.482,419.739C223.056,423.643 221.012,428.594 218.29,433.705C219.103,434.137 219.938,434.571 220.794,435.008C221.374,435.304 221.954,435.599 222.535,435.892C224.273,430.147 224.59,424.193 224.482,419.739ZM513.116,647.335C487.087,634.041 460.502,618.283 444.69,609.294C431.544,601.822 424.339,598.867 417.778,597.458C446.329,616.895 456.551,629.979 465.833,640.912C472.454,648.71 478.565,655.381 491.05,662.562C503.054,669.467 510.113,677.168 517.588,683.597C524.533,689.572 531.875,694.359 544.644,695.959C552.01,696.882 559.626,696.255 567.105,694.595C567.376,694.489 567.667,694.42 567.972,694.397C584.921,690.449 601.086,681.278 611.953,672.913C611.996,672.879 612.039,672.845 612.083,672.813C613.217,671.937 614.292,671.071 615.304,670.22C616.017,669.621 616.713,669.034 617.393,668.459C618.839,663.929 622.161,659.746 628.835,658.024C629.94,656.85 630.889,655.735 631.667,654.672C633.739,651.84 634.502,649.603 632.524,647.532C630.787,645.713 627.974,645.321 624.874,646.157C619.004,647.739 612.373,653.55 607.668,664.155C607.139,665.347 605.901,666.061 604.605,665.921C603.309,665.782 602.251,664.822 601.987,663.545C601.987,663.545 601.762,662.698 600.93,662.119C600.151,661.577 598.948,661.365 597.164,661.686C592.669,662.497 585.753,666.304 574.851,676.222C573.626,677.336 571.727,677.247 570.613,676.022C569.499,674.797 569.589,672.898 570.813,671.784C571.351,671.295 571.88,670.82 572.4,670.359C572.343,670.355 572.286,670.349 572.229,670.342C570.455,670.121 568.561,669.78 566.562,669.329C556.914,673.876 548.217,688.032 548.217,688.032C547.339,689.436 545.487,689.864 544.083,688.986C542.679,688.108 542.252,686.256 543.129,684.852C543.129,684.852 550.106,673.86 558.767,667.202C553.528,665.559 547.803,663.393 541.773,660.851C531.521,668.705 524.11,680.293 524.11,680.293C523.217,681.687 521.36,682.094 519.966,681.201C518.571,680.308 518.164,678.451 519.058,677.057C519.058,677.057 525.854,666.463 535.575,658.157C530.582,655.925 525.431,653.482 520.215,650.904C514.667,652.278 511.196,656.291 511.196,656.291C510.117,657.546 508.221,657.688 506.966,656.608C505.711,655.529 505.568,653.633 506.648,652.378C506.648,652.378 509.028,649.6 513.116,647.335ZM666.787,674.405C667.181,673.643 667.506,672.904 667.755,672.192C668.306,670.619 668.536,669.245 667.955,668.151C664.195,661.075 653.668,659.993 646.453,668.778C642.223,673.929 637.617,677.697 632.793,679.751C631.846,686.01 629.053,692.076 629.053,692.076C628.358,693.579 626.573,694.234 625.071,693.539C623.568,692.843 622.912,691.059 623.608,689.556C623.608,689.556 625.34,685.833 626.368,681.435C622.996,681.771 619.555,681.258 616.093,679.793C610.586,692.079 600.069,704.549 600.069,704.549C598.999,705.813 597.105,705.971 595.841,704.902C594.577,703.833 594.418,701.938 595.488,700.674C595.488,700.674 602.303,692.64 607.577,683.326C599.394,688.635 589.564,693.745 579.11,697.334C579.468,697.549 579.823,697.774 580.175,698.008C583.387,700.137 586.406,703.027 589.639,705.862C593.92,709.616 598.597,713.325 605.039,714.305C608.981,714.904 613.537,714.474 619.007,712.532C619.016,712.528 619.026,712.523 619.035,712.519C619.163,712.464 619.293,712.418 619.424,712.382C622.955,711.089 626.865,709.173 631.231,706.505C632.172,705.931 633.11,705.344 634.042,704.747C634.069,704.73 634.096,704.712 634.124,704.695C639.707,701.115 645.087,697.171 649.875,693.159C647.405,691.508 646.075,689.793 645.495,688.13C644.559,685.444 645.287,682.49 647.55,679.225C648.986,677.156 650.389,675.476 652.537,674.403C655.188,673.079 659.233,672.631 666.787,674.405ZM654.592,689.006C657.993,685.849 660.945,682.714 663.26,679.746C659.235,678.911 656.872,678.945 655.218,679.771C653.989,680.385 653.302,681.46 652.481,682.644C651.989,683.354 651.589,684.023 651.333,684.671C651.126,685.196 650.996,685.681 651.161,686.154C651.335,686.655 651.752,687.095 652.339,687.572C652.937,688.058 653.685,688.531 654.592,689.006ZM712.137,725.456C712.083,725.071 711.95,724.653 711.777,724.214C711.054,722.373 709.452,720.389 707.101,718.754C700.405,714.097 688.136,712.639 671.002,723.507C669.742,724.306 668.087,724.058 667.116,722.925C666.146,721.792 666.156,720.118 667.139,718.996C667.139,718.996 668.801,717.265 668.455,715.348C668.196,713.915 666.703,712.78 663.409,711.737C658.442,710.165 650.158,709.397 636.655,710.196C635.893,710.68 635.127,711.157 634.359,711.626C630.804,713.797 627.504,715.51 624.433,716.829C629.119,724.231 637.959,727.125 647.385,728.883C659.089,731.066 671.789,731.409 680.369,734.416C680.811,734.571 681.264,734.71 681.725,734.833C684.174,731.974 686.593,730.236 688.985,729.223C692.342,727.802 695.701,727.772 699.219,728.405C701.87,728.883 704.626,729.754 707.569,730.521C708.743,729.83 709.765,729.097 710.583,728.337C711.314,727.658 711.882,727.001 712.094,726.307C712.133,726.181 712.154,726.047 712.161,725.908C712.152,725.835 712.145,725.761 712.141,725.686C712.137,725.609 712.135,725.532 712.137,725.456ZM689.738,735.595C692.539,735.472 695.394,735.005 698.104,734.299C696.093,733.936 694.154,733.834 692.228,734.421C691.391,734.675 690.564,735.06 689.738,735.595ZM318.979,850.087C322.07,845.226 325.231,840.584 328.028,836.515C328.966,835.15 330.836,834.804 332.2,835.742C333.564,836.68 333.911,838.549 332.973,839.914C330.347,843.732 327.368,848.07 324.439,852.611C328.094,854.383 331.975,856.457 333.858,858.084C335.111,859.167 335.249,861.063 334.167,862.316C333.084,863.569 331.188,863.707 329.935,862.624C328.21,861.133 324.618,859.254 321.261,857.668C316.14,866.059 311.669,874.74 310.232,881.859C309.546,885.261 309.521,888.237 310.9,890.449C312.235,892.589 314.862,893.783 318.942,894.178C320.59,894.337 321.798,895.805 321.639,897.453C321.48,899.101 320.012,900.309 318.364,900.15C311.852,899.52 307.94,897.041 305.809,893.624C303.723,890.278 303.312,885.819 304.351,880.672C305.858,873.201 310.483,864.057 315.8,855.22C314.58,854.699 313.805,854.386 313.805,854.386C312.274,853.756 311.542,852.002 312.171,850.471C312.801,848.939 314.555,848.207 316.087,848.836C316.087,848.836 317.241,849.317 318.979,850.087ZM228.573,836.486C222.165,836.855 215.518,834.788 210.726,829.847C206.741,825.74 203.976,819.641 203.871,811.229C203.816,806.825 204.672,804.796 205.656,803.087C206.332,801.913 207.193,800.993 207.712,798.892C208.205,796.895 210.466,794.197 214.161,792.163C221.464,788.144 234.211,786.168 243.451,795.305C248.716,800.512 251.151,806.277 251.252,812.029C251.26,812.491 251.253,812.954 251.23,813.417C252.711,811.851 253.937,810.553 254.823,809.629C255.969,808.434 257.869,808.394 259.065,809.54C260.26,810.686 260.3,812.586 259.154,813.781C256.578,816.469 251.198,822.179 245.001,828.492C244.931,828.578 244.861,828.664 244.79,828.75C244.006,829.699 243.129,830.568 242.176,831.353C232.529,841.064 221.697,851.325 216.491,853.836C210.45,856.75 201.256,856.062 195.548,849.716C191.94,845.706 189.615,839.355 190.807,829.999C191.017,828.356 192.52,827.193 194.163,827.402C195.805,827.611 196.969,829.115 196.759,830.757C195.86,837.814 197.288,842.679 200.008,845.703C203.791,849.908 209.882,850.362 213.884,848.432C217.126,846.868 222.606,842.161 228.573,836.486ZM239.829,825.32C239.943,825.191 240.055,825.061 240.165,824.928C243.499,820.892 245.329,816.519 245.253,812.134C245.176,807.792 243.206,803.502 239.232,799.572C233.253,793.659 225.303,794.088 219.687,796.211C217.491,797.042 215.642,798.129 214.438,799.245C214.006,799.646 213.625,799.972 213.537,800.33C212.946,802.724 212.104,804.071 211.29,805.368C210.504,806.62 209.829,807.822 209.871,811.154C209.952,817.686 211.938,822.48 215.032,825.67C221.572,832.411 232.794,831.96 238.92,826.248C239.224,825.938 239.527,825.628 239.829,825.32ZM101.385,665.006C95.507,663.64 89.979,660.152 86.611,654.63C83.638,649.756 82.292,643.299 84.03,635.321C84.943,631.131 86.202,629.394 87.509,627.988C88.397,627.034 89.405,626.359 90.346,624.503C91.253,622.712 93.991,620.636 97.952,619.513C105.743,617.306 118.242,618.226 124.99,628.896C130.258,637.225 130.746,645.798 127.1,652.964C129.463,652.118 131.663,651.365 133.567,650.721C135.136,650.191 136.84,651.035 137.37,652.603C137.9,654.172 137.056,655.876 135.488,656.406C130.622,658.05 123.725,660.418 117.239,663.241C116.463,663.656 115.655,664.017 114.821,664.325C112.503,665.396 110.281,666.524 108.274,667.695C105.762,669.16 103.601,670.676 102.095,672.252C101.076,673.319 100.318,674.324 100.353,675.422C100.405,677.077 99.104,678.463 97.449,678.515C95.794,678.568 94.408,677.266 94.356,675.612C94.246,672.142 96.706,668.447 101.148,665.179C101.227,665.121 101.306,665.064 101.385,665.006ZM114.502,657.914C115.03,657.618 115.535,657.287 116.016,656.919C123.989,650.815 125.708,641.255 119.92,632.103C115.594,625.265 108.045,623.949 102.32,624.724C100.083,625.026 98.115,625.643 96.745,626.429C96.27,626.701 95.853,626.909 95.698,627.215C94.613,629.356 93.52,630.449 92.465,631.5C91.46,632.5 90.572,633.477 89.892,636.598C88.552,642.75 89.441,647.747 91.733,651.505C96.099,658.663 105.358,661.334 112.301,658.904C113.028,658.569 113.762,658.239 114.502,657.914ZM164.4,769.44C158.007,769.66 151.331,767.451 146.52,762.459C142.539,758.33 139.788,752.309 139.686,744.158C139.633,739.869 140.468,737.894 141.426,736.229C142.076,735.1 142.907,734.216 143.405,732.196C143.887,730.246 146.087,727.607 149.693,725.622C156.788,721.718 169.173,719.801 178.15,728.679C184.612,735.07 187.134,742.761 185.944,750.142C192.895,744.919 199.819,740.274 204.98,736.94C206.371,736.042 208.229,736.441 209.128,737.832C210.026,739.223 209.627,741.081 208.236,741.98C200.825,746.768 189.615,754.324 180.173,762.358C179.054,763.683 177.738,764.833 176.277,765.798C173.248,768.585 170.52,771.389 168.318,774.12C166.439,776.448 164.957,778.705 164.071,780.843C163.363,782.553 163.03,784.147 163.378,785.595C163.766,787.204 162.773,788.826 161.164,789.213C159.554,789.601 157.932,788.608 157.545,786.999C156.411,782.288 158.764,776.406 163.648,770.352C163.893,770.049 164.144,769.745 164.4,769.44ZM175.768,758.269C182.066,750.529 181.604,740.533 173.931,732.945C168.178,727.256 160.526,727.672 155.122,729.716C153.01,730.514 151.232,731.558 150.074,732.632C149.673,733.004 149.313,733.301 149.231,733.633C148.655,735.964 147.836,737.275 147.044,738.536C146.291,739.737 145.646,740.889 145.686,744.083C145.764,750.391 147.759,755.1 150.84,758.295C156.698,764.374 166.317,765.035 172.524,761.133C173.576,760.175 174.66,759.219 175.768,758.269ZM97.375,330.915C82.32,327.028 65.794,324.327 65.794,324.327C64.16,324.059 63.051,322.515 63.319,320.881C63.587,319.247 65.132,318.138 66.765,318.406C66.765,318.406 84.048,321.255 99.62,325.318C99.772,325.346 99.922,325.385 100.069,325.436C105.535,326.874 110.766,328.46 114.936,330.123C116.474,330.737 117.225,332.483 116.611,334.021C115.998,335.559 114.251,336.31 112.713,335.696C111.006,335.015 109.116,334.348 107.103,333.7C108.301,335.417 109.316,337.077 110.101,338.719C112.202,343.111 112.782,347.416 111.164,352.254C108.015,361.671 96.953,367.517 87.368,365.853C79.01,364.402 58.366,357.068 58.366,357.068C56.806,356.512 55.991,354.795 56.547,353.235C57.102,351.675 58.82,350.86 60.38,351.416C60.38,351.416 80.318,358.54 88.395,359.941C95.245,361.13 103.223,357.081 105.473,350.351C106.797,346.394 105.801,342.983 103.625,339.34C102.044,336.693 99.872,333.957 97.375,330.915ZM78.898,391.97C63.566,389.375 46.871,388.086 46.871,388.086C45.22,387.957 43.984,386.513 44.113,384.862C44.241,383.211 45.686,381.975 47.337,382.104C47.337,382.104 64.799,383.476 80.659,386.203C80.813,386.217 80.966,386.244 81.117,386.282C86.685,387.251 92.032,388.387 96.328,389.691C97.913,390.171 98.809,391.848 98.328,393.432C97.847,395.017 96.171,395.913 94.586,395.432C92.827,394.898 90.887,394.394 88.827,393.919C90.166,395.529 91.318,397.096 92.24,398.666C94.706,402.863 95.649,407.103 94.447,412.062C92.109,421.712 81.584,428.475 71.892,427.631C63.441,426.895 42.249,421.339 42.249,421.339C40.647,420.918 39.689,419.276 40.111,417.674C40.532,416.073 42.174,415.115 43.775,415.537C43.775,415.537 64.246,420.942 72.413,421.654C79.339,422.257 86.945,417.545 88.616,410.649C89.599,406.593 88.317,403.279 85.84,399.834C84.04,397.331 81.644,394.789 78.898,391.97ZM631.742,885.735C630.075,879.541 628.209,873.323 626.275,868.175C625.693,866.625 626.479,864.894 628.029,864.312C629.579,863.73 631.31,864.515 631.892,866.065C633.134,869.371 634.349,873.109 635.504,877.001C636.992,874.332 638.54,871.872 640.22,869.778C643.678,865.467 647.726,862.645 652.757,862.145C654.405,861.981 655.875,863.186 656.039,864.834C656.203,866.481 654.998,867.952 653.35,868.115C649.91,868.457 647.265,870.584 644.9,873.532C642.303,876.769 640.086,880.974 637.863,885.433C641.677,899.825 644.387,913.644 644.387,913.644C644.705,915.269 643.644,916.846 642.019,917.164C640.394,917.482 638.817,916.421 638.499,914.796C638.499,914.796 635.71,900.527 631.822,886.03C631.793,885.932 631.766,885.834 631.742,885.735ZM127.169,679.397C114.477,688.38 101.74,699.251 101.74,699.251C100.48,700.325 98.585,700.174 97.511,698.914C96.437,697.654 96.588,695.759 97.848,694.684C97.848,694.684 111.186,683.331 124.346,674.069C124.466,673.97 124.593,673.881 124.726,673.802C129.354,670.558 133.945,667.588 137.908,665.48C139.37,664.702 141.188,665.257 141.966,666.719C142.743,668.18 142.188,669.999 140.726,670.776C139.104,671.64 137.373,672.652 135.578,673.77C137.663,673.965 139.586,674.262 141.347,674.723C146.056,675.956 149.717,678.294 152.365,682.655C157.52,691.141 154.838,703.361 147.377,709.604C140.87,715.047 121.936,726.069 121.936,726.069C120.505,726.901 118.667,726.414 117.835,724.982C117.004,723.551 117.491,721.713 118.922,720.881C118.922,720.881 137.239,710.262 143.527,705.002C148.859,700.541 150.921,691.835 147.237,685.77C145.071,682.203 141.824,680.76 137.638,680.068C134.595,679.565 131.104,679.456 127.169,679.397ZM83.297,556.34C73.965,558.154 64.89,560.548 58.416,563.825C54.415,565.85 51.415,568.068 50.593,570.979C50.118,572.658 50.535,574.501 51.794,576.582C52.65,577.999 52.196,579.845 50.779,580.701C49.362,581.558 47.516,581.103 46.659,579.687C44.353,575.872 43.949,572.425 44.819,569.347C46.013,565.122 49.898,561.411 55.707,558.471C62.604,554.981 72.328,552.408 82.273,550.466C81.472,546.247 80.696,542.78 80.696,542.78C80.341,541.163 81.365,539.561 82.983,539.206C84.6,538.851 86.201,539.875 86.556,541.492C86.556,541.492 87.318,545.021 88.126,549.394C94.254,548.341 100.272,547.505 105.568,546.82C107.21,546.608 108.715,547.768 108.928,549.41C109.14,551.052 107.979,552.558 106.337,552.77C101.124,553.445 95.177,554.254 89.134,555.281C89.702,558.944 90.104,562.411 89.978,564.329C89.87,565.981 88.441,567.235 86.789,567.127C85.137,567.019 83.883,565.589 83.991,563.937C84.099,562.297 83.777,559.437 83.297,556.34ZM498.923,891.054C499.53,886.743 500.161,882.51 500.693,878.561C500.914,876.92 502.425,875.767 504.066,875.987C505.707,876.208 506.86,877.72 506.639,879.361C506.157,882.943 505.579,886.769 505.011,890.67C509.477,890.436 513.463,890.36 515.26,890.669C516.892,890.95 517.989,892.503 517.708,894.135C517.428,895.766 515.875,896.863 514.243,896.583C512.493,896.282 508.544,896.384 504.168,896.643C502.817,906.67 501.882,916.639 503.122,923.792C503.738,927.345 504.768,930.149 507.083,931.362C508.561,932.137 510.481,932.159 512.928,931.543C514.534,931.139 516.166,932.115 516.57,933.72C516.974,935.326 515.999,936.958 514.393,937.362C510.159,938.428 506.855,938.017 504.297,936.676C500.554,934.714 498.206,930.562 497.21,924.817C495.941,917.496 496.793,907.333 498.11,897.069C492.042,897.552 486.688,898.118 486.688,898.118C485.04,898.287 483.566,897.086 483.397,895.439C483.228,893.792 484.429,892.318 486.076,892.149C486.076,892.149 492.194,891.54 498.923,891.054ZM541.02,886.497C541.432,882.163 541.872,877.905 542.225,873.936C542.372,872.287 543.83,871.067 545.479,871.213C547.128,871.36 548.348,872.818 548.201,874.467C547.881,878.068 547.476,881.915 547.084,885.838C551.535,885.404 555.514,885.148 557.323,885.376C558.966,885.583 560.132,887.084 559.925,888.727C559.718,890.37 558.217,891.536 556.574,891.329C554.812,891.107 550.872,891.388 546.512,891.844C545.614,901.921 545.13,911.922 546.691,919.012C547.466,922.533 548.622,925.288 550.988,926.396C552.501,927.103 554.419,927.039 556.836,926.313C558.422,925.837 560.096,926.738 560.572,928.324C561.048,929.91 560.147,931.584 558.562,932.06C554.38,933.316 551.061,933.054 548.445,931.83C544.618,930.039 542.085,925.996 540.831,920.303C539.233,913.046 539.626,902.855 540.479,892.543C534.439,893.298 529.116,894.104 529.116,894.104C527.478,894.347 525.951,893.215 525.708,891.577C525.465,889.939 526.597,888.412 528.235,888.169C528.235,888.169 534.32,887.285 541.02,886.497ZM382.225,878.215C387.101,863.69 391.857,851.55 391.857,851.55C392.462,850.008 394.205,849.248 395.746,849.853C397.287,850.458 398.048,852.2 397.443,853.741C397.443,853.741 393.752,863.132 389.568,875.21C393.557,874.319 398.229,873.524 402.811,873.759C407.831,874.017 412.734,875.477 416.737,879.065C420.863,882.764 424.114,888.816 425.219,898.577C428.558,928.077 389.655,935.481 378.314,915.055C377.861,916.43 376.462,917.313 374.988,917.075C373.353,916.812 372.24,915.271 372.503,913.636C373.112,909.854 374.104,905.488 375.325,900.858C375.352,900.712 375.39,900.571 375.437,900.434C377.308,893.394 379.695,885.772 382.066,878.688C382.106,878.526 382.159,878.367 382.225,878.215ZM381.266,901.802C380.869,928.922 422.241,925.62 419.257,899.252C418.373,891.444 416.033,886.492 412.732,883.533C409.017,880.202 404.197,879.524 399.544,879.756C395.065,879.979 390.698,881.065 387.292,881.916C385.122,888.455 382.972,895.379 381.266,901.802ZM888.849,424.198C879.089,425.369 869.502,427.229 863.021,430.506C859.924,432.072 857.571,433.895 856.688,436.346C855.832,438.72 856.52,441.523 858.735,444.971C859.63,446.364 859.225,448.222 857.832,449.116C856.438,450.011 854.581,449.606 853.686,448.213C850.151,442.708 849.678,438.1 851.043,434.312C852.38,430.603 855.629,427.521 860.314,425.152C867.115,421.712 877.16,419.686 887.392,418.394C887.046,417.113 886.813,416.311 886.813,416.311C886.36,414.718 887.285,413.058 888.877,412.604C890.47,412.151 892.131,413.076 892.584,414.668C892.584,414.668 892.921,415.873 893.392,417.715C899.123,417.134 904.725,416.744 909.653,416.423C911.305,416.316 912.734,417.57 912.842,419.222C912.949,420.874 911.695,422.303 910.043,422.411C905.419,422.712 900.168,423.055 894.788,423.565C895.659,427.533 896.431,431.864 896.318,434.351C896.243,436.005 894.839,437.287 893.185,437.212C891.531,437.137 890.249,435.733 890.324,434.079C890.427,431.801 889.68,427.817 888.849,424.198ZM837.262,348.285C830.986,346.944 825.124,343.19 821.81,337.157C819.056,332.14 818.005,325.528 820.132,317.388C821.245,313.127 822.608,311.397 824.009,310.009C824.972,309.056 826.047,308.397 827.103,306.509C828.107,304.713 831.002,302.71 835.104,301.728C843.21,299.786 856.026,301.257 862.515,312.516C866.213,318.931 867.035,325.135 865.609,330.708C865.494,331.156 865.364,331.6 865.22,332.04C867.063,330.923 868.589,329.996 869.688,329.34C871.109,328.491 872.953,328.955 873.802,330.377C874.651,331.798 874.186,333.642 872.765,334.491C869.569,336.4 862.869,340.481 855.221,344.928C855.131,344.992 855.04,345.056 854.95,345.12C853.941,345.828 852.866,346.434 851.739,346.939C839.865,353.748 826.702,360.773 821.016,361.816C814.419,363.025 805.737,359.928 801.912,352.296C799.496,347.474 798.936,340.734 802.563,332.028C803.2,330.499 804.958,329.775 806.487,330.412C808.015,331.049 808.739,332.807 808.102,334.335C805.366,340.902 805.454,345.971 807.277,349.608C809.81,354.664 815.563,356.715 819.934,355.914C823.475,355.265 830.006,352.177 837.262,348.285ZM851.073,340.499C851.218,340.405 851.36,340.309 851.501,340.21C855.785,337.201 858.709,333.469 859.796,329.22C860.872,325.013 860.109,320.355 857.317,315.512C853.118,308.227 845.338,306.535 839.361,307.096C837.023,307.315 834.952,307.873 833.495,308.631C832.972,308.902 832.519,309.116 832.339,309.438C831.135,311.59 829.966,312.667 828.838,313.701C827.748,314.7 826.779,315.681 825.937,318.905C824.286,325.225 824.931,330.374 827.07,334.269C831.591,342.502 842.532,345.039 849.951,341.153C850.327,340.935 850.701,340.716 851.073,340.499ZM715.036,180.885C709.192,182.39 702.678,181.85 697.139,178.509C692.251,175.559 688.074,170.455 685.929,162.576C684.803,158.438 685.117,156.316 685.627,154.465C685.973,153.209 686.556,152.145 686.533,150.064C686.51,148.056 687.979,144.95 690.973,142.125C696.863,136.567 708.373,131.609 719.288,137.954C727.808,142.907 732.201,150.285 732.278,158.325C733.983,156.483 735.586,154.799 736.978,153.348C738.124,152.153 740.025,152.114 741.219,153.26C742.414,154.407 742.453,156.307 741.307,157.502C737.751,161.208 732.729,166.495 728.281,171.995C727.785,172.721 727.235,173.415 726.637,174.073C725.076,176.095 723.627,178.122 722.388,180.087C720.837,182.547 719.621,184.89 719.013,186.983C718.602,188.4 718.394,189.642 718.933,190.6C719.744,192.044 719.23,193.874 717.786,194.685C716.343,195.496 714.512,194.982 713.702,193.539C712.001,190.512 712.475,186.098 714.906,181.148C714.949,181.06 714.992,180.973 715.036,180.885ZM723.393,168.535C723.724,168.029 724.019,167.501 724.275,166.953C728.527,157.856 725.634,148.584 716.272,143.142C709.277,139.075 701.974,141.396 697.254,144.728C695.41,146.03 693.95,147.486 693.097,148.816C692.802,149.276 692.528,149.654 692.532,149.997C692.559,152.396 692.095,153.871 691.644,155.291C691.215,156.642 690.88,157.919 691.719,161.001C693.372,167.076 696.469,171.097 700.239,173.371C707.417,177.701 716.862,175.793 721.898,170.43C722.387,169.797 722.886,169.165 723.393,168.535ZM801.195,269.389C794.802,269.609 788.126,267.401 783.315,262.409C779.334,258.279 776.583,252.259 776.481,244.107C776.428,239.819 777.263,237.843 778.221,236.179C778.871,235.049 779.702,234.165 780.2,232.145C780.682,230.196 782.882,227.556 786.488,225.572C793.583,221.667 805.968,219.751 814.945,228.629C821.407,235.019 823.929,242.71 822.739,250.091C829.69,244.869 836.614,240.224 841.775,236.89C843.166,235.991 845.024,236.391 845.923,237.781C846.821,239.172 846.422,241.031 845.031,241.929C837.62,246.717 826.41,254.273 816.968,262.307C815.849,263.632 814.533,264.782 813.072,265.748C810.043,268.534 807.315,271.339 805.113,274.069C803.234,276.397 801.752,278.654 800.866,280.793C800.158,282.502 799.825,284.096 800.173,285.544C800.561,287.154 799.568,288.775 797.959,289.163C796.349,289.55 794.727,288.558 794.34,286.948C793.206,282.238 795.559,276.356 800.443,270.301C800.688,269.998 800.939,269.694 801.195,269.389ZM812.563,258.218C818.861,250.478 818.399,240.483 810.726,232.895C804.972,227.205 797.321,227.622 791.917,229.665C789.805,230.464 788.027,231.508 786.869,232.581C786.468,232.953 786.108,233.25 786.026,233.583C785.45,235.913 784.631,237.224 783.839,238.486C783.086,239.686 782.441,240.838 782.481,244.032C782.559,250.341 784.554,255.049 787.635,258.245C793.493,264.323 803.112,264.984 809.319,261.083C810.371,260.124 811.455,259.168 812.563,258.218ZM412.92,65.778C413.104,60.129 413.485,54.675 414.178,50.24C414.433,48.604 415.969,47.483 417.605,47.739C419.241,47.994 420.361,49.53 420.106,51.166C419.822,52.982 419.593,54.973 419.409,57.08C420.817,55.529 422.209,54.17 423.635,53.039C427.448,50.013 431.516,48.488 436.593,48.988C446.475,49.96 454.638,59.441 455.151,69.156C455.598,77.627 453.047,99.387 453.047,99.387C452.853,101.031 451.36,102.208 449.716,102.014C448.071,101.82 446.894,100.327 447.088,98.683C447.088,98.683 449.592,77.658 449.159,69.472C448.792,62.53 443.068,55.654 436.005,54.959C431.853,54.551 428.749,56.281 425.683,59.214C423.454,61.345 421.271,64.072 418.862,67.183C418.426,82.726 419.474,99.439 419.474,99.439C419.577,101.092 418.318,102.517 416.666,102.619C415.013,102.721 413.588,101.463 413.486,99.81C413.486,99.81 412.413,82.327 412.905,66.242C412.898,66.088 412.903,65.932 412.92,65.778ZM472.619,66.1C473.335,60.493 474.228,55.1 475.336,50.75C475.745,49.145 477.379,48.174 478.983,48.583C480.588,48.991 481.559,50.626 481.15,52.23C480.697,54.011 480.281,55.972 479.899,58.052C481.447,56.642 482.961,55.419 484.487,54.428C488.569,51.775 492.762,50.641 497.769,51.617C507.515,53.516 514.748,63.725 514.343,73.444C513.99,81.92 509.398,103.342 509.398,103.342C509.05,104.961 507.453,105.992 505.834,105.644C504.216,105.295 503.184,103.698 503.533,102.079C503.533,102.079 508.007,81.385 508.348,73.194C508.638,66.248 503.587,58.863 496.621,57.506C492.526,56.707 489.273,58.138 485.944,60.768C483.524,62.68 481.093,65.189 478.402,68.059C476.503,83.492 475.97,100.229 475.97,100.229C475.917,101.884 474.529,103.184 472.874,103.13C471.22,103.076 469.92,101.689 469.973,100.034C469.973,100.034 470.554,82.528 472.561,66.561C472.568,66.406 472.588,66.252 472.619,66.1ZM810.244,741.643C797.727,733.582 786.411,725.199 786.411,725.199C785.081,724.213 784.802,722.333 785.788,721.002C786.774,719.672 788.655,719.393 789.985,720.379C789.985,720.379 801.662,729.042 814.305,737.131C814.392,737.184 814.478,737.238 814.562,737.295C819.968,740.747 825.538,744.084 830.436,746.584C831.91,747.336 832.497,749.145 831.744,750.62C830.991,752.094 829.183,752.68 827.708,751.928C824.563,750.322 821.146,748.38 817.669,746.283C818.369,749.258 818.883,752.118 819.054,754.798C819.404,760.313 818.316,765.126 814.936,768.886C813.829,770.117 811.93,770.218 810.699,769.112C809.468,768.005 809.367,766.106 810.474,764.875C812.785,762.304 813.305,758.95 813.066,755.178C812.803,751.037 811.607,746.436 810.244,741.643ZM752.106,179.724C756.222,175.851 760.339,172.255 763.96,169.6C765.295,168.621 767.174,168.91 768.153,170.245C769.132,171.581 768.843,173.46 767.507,174.439C766.025,175.526 764.458,176.775 762.841,178.138C764.932,178.033 766.878,178.052 768.687,178.256C773.524,178.802 777.482,180.591 780.728,184.528C787.045,192.189 786.14,204.667 779.65,211.913C773.99,218.232 756.83,231.853 756.83,231.853C755.532,232.881 753.644,232.662 752.615,231.364C751.587,230.066 751.806,228.178 753.104,227.15C753.104,227.15 769.711,214.017 775.18,207.91C779.819,202.731 780.613,193.82 776.098,188.345C773.444,185.125 770.023,184.162 765.781,184.077C762.698,184.015 759.227,184.407 755.324,184.912C744.05,195.62 733.001,208.203 733.001,208.203C731.907,209.446 730.01,209.568 728.767,208.475C727.523,207.382 727.402,205.484 728.495,204.241C728.495,204.241 740.07,191.094 751.768,180.043C751.872,179.928 751.985,179.822 752.106,179.724ZM639.938,99.679C636.066,97.822 632.814,96.391 632.814,96.391C631.301,95.718 630.619,93.944 631.292,92.431C631.965,90.918 633.739,90.236 635.252,90.909C635.252,90.909 638.545,92.388 642.545,94.33C645.331,88.771 648.226,83.43 650.815,78.759C651.617,77.311 653.445,76.787 654.893,77.59C656.341,78.392 656.865,80.219 656.063,81.668C653.514,86.266 650.64,91.534 647.883,97.009C651.17,98.724 654.2,100.456 655.67,101.694C656.936,102.761 657.098,104.655 656.032,105.921C654.965,107.188 653.071,107.35 651.804,106.283C650.547,105.224 648.053,103.787 645.275,102.337C641.203,110.927 637.749,119.655 636.549,126.811C635.807,131.233 635.815,134.964 637.671,137.352C638.742,138.73 640.472,139.487 642.895,139.708C644.544,139.858 645.76,141.318 645.61,142.967C645.46,144.616 643.999,145.833 642.35,145.683C637.911,145.278 634.896,143.559 632.933,141.034C630.239,137.567 629.554,132.238 630.632,125.818C631.911,118.194 635.605,108.839 639.938,99.679ZM881.32,625.351C871.861,621.763 862.363,618.593 855.115,618.18C851.515,617.975 848.551,618.343 846.845,620.322C845.755,621.586 845.298,623.451 845.343,625.974C845.373,627.63 844.053,628.998 842.398,629.028C840.742,629.058 839.374,627.738 839.344,626.082C839.266,621.717 840.414,618.592 842.3,616.404C845.059,613.204 849.636,611.858 855.456,612.19C862.875,612.613 872.58,615.745 882.278,619.354C883.184,613.334 883.846,607.991 883.846,607.991C884.055,606.349 885.558,605.185 887.2,605.394C888.843,605.602 890.007,607.105 889.798,608.748C889.798,608.748 889.005,614.846 887.953,621.509C892.014,623.077 895.995,624.652 899.72,626.064C901.269,626.651 902.049,628.385 901.462,629.933C900.875,631.481 899.142,632.261 897.593,631.674C894.213,630.393 890.619,628.963 886.948,627.526C886.163,631.928 885.334,635.828 884.625,637.508C883.982,639.034 882.221,639.751 880.696,639.108C879.17,638.465 878.453,636.704 879.096,635.178C879.786,633.541 880.581,629.672 881.32,625.351ZM866.035,663.084C856.775,659.011 847.453,655.354 840.236,654.566C836.652,654.174 833.673,654.389 831.866,656.277C830.712,657.483 830.16,659.322 830.074,661.844C830.018,663.499 828.629,664.797 826.975,664.741C825.32,664.685 824.022,663.296 824.078,661.641C824.225,657.277 825.534,654.217 827.531,652.129C830.452,649.076 835.092,647.968 840.887,648.601C848.274,649.408 857.804,653.038 867.303,657.144C868.518,651.179 869.456,645.878 869.456,645.878C869.75,644.248 871.311,643.164 872.94,643.457C874.57,643.751 875.655,645.312 875.361,646.941C875.361,646.941 874.253,652.99 872.858,659.59C876.833,661.366 880.726,663.144 884.374,664.748C885.89,665.414 886.579,667.186 885.913,668.702C885.247,670.217 883.475,670.907 881.959,670.241C878.65,668.786 875.134,667.172 871.543,665.546C870.531,669.903 869.501,673.754 868.707,675.396C867.985,676.886 866.19,677.511 864.699,676.789C863.209,676.068 862.584,674.273 863.306,672.782C864.079,671.183 865.073,667.361 866.035,663.084ZM861.503,498.975C860.065,498.808 858.919,497.616 858.856,496.123C858.785,494.469 860.071,493.069 861.725,492.998C865.552,492.835 870.029,492.928 874.809,493.193C874.957,493.191 875.104,493.199 875.247,493.218C882.52,493.635 890.466,494.441 897.882,495.34C898.049,495.346 898.215,495.366 898.377,495.4C913.586,497.256 926.435,499.475 926.435,499.475C928.066,499.758 929.161,501.312 928.879,502.943C928.596,504.575 927.042,505.67 925.411,505.387C925.411,505.387 915.469,503.659 902.797,501.989C904.472,505.718 906.19,510.134 906.881,514.67C907.638,519.639 907.193,524.736 904.483,529.379C901.689,534.164 896.414,538.565 887.074,541.61C858.848,550.811 843.774,514.192 861.503,498.975ZM895.77,501.108C888.929,500.296 881.713,499.582 875.079,499.203C848.433,504.267 859.985,544.13 885.215,535.905C892.686,533.47 897.066,530.182 899.301,526.353C901.817,522.045 901.512,517.187 900.349,512.675C899.23,508.332 897.289,504.273 895.77,501.108ZM261.935,846.878C261.085,849.047 260.502,851.138 260.032,852.937C259.104,856.489 259.499,861.456 260.921,865.558C261.769,868.007 262.948,870.175 264.599,871.327C269.417,874.691 271.5,875.707 279.071,876.872C280.707,877.124 281.831,878.657 281.579,880.293C281.328,881.93 279.794,883.054 278.158,882.802C269.26,881.433 266.828,880.2 261.164,876.247C258.622,874.472 256.559,871.295 255.251,867.522C253.439,862.291 253.044,855.951 254.226,851.421C255,848.457 256.076,844.878 257.882,841.304L257.933,841.149L258.023,841.028C260.899,835.455 265.577,829.934 273.68,826.815C281.911,823.647 288.369,825.075 292.435,828.5C296.663,832.061 298.501,837.953 297.019,844.124C295.818,849.127 294.498,854.074 292.705,856.926C291.274,859.204 289.454,860.404 287.486,860.572C285.706,860.725 283.485,860.037 281.038,857.526C277.049,853.433 269.085,850.129 264.099,847.891C263.311,847.538 262.585,847.198 261.935,846.878ZM264.66,841.482C265.862,842.06 267.487,842.831 268.987,843.506C274.457,845.968 281.494,849.398 285.335,853.338C285.734,853.748 286.106,854.074 286.462,854.313C286.61,854.413 286.827,854.512 286.942,854.561C287.057,854.448 287.333,854.17 287.489,853.941C287.804,853.483 288.089,852.93 288.362,852.311C289.485,849.762 290.338,846.248 291.185,842.723C292.094,838.94 291.162,835.272 288.57,833.089C285.816,830.769 281.409,830.269 275.835,832.415C270.494,834.47 267.016,837.837 264.66,841.482ZM141.334,254.719C149.772,251.555 154.937,243.279 154.302,234.861C153.872,229.171 150.756,223.471 144.349,219.187C138.317,215.155 132.519,214.351 127.472,215.702C119.792,217.759 113.923,224.599 111.634,231.863C111.136,233.442 109.45,234.32 107.871,233.822C106.292,233.325 105.414,231.638 105.912,230.059C108.784,220.944 116.282,212.487 125.92,209.907C132.417,208.167 139.92,209.009 147.684,214.199C155.903,219.694 159.734,227.111 160.285,234.409C161.116,245.435 154.377,256.315 143.285,260.394C142.545,260.667 141.549,260.778 140.507,260.707C138.85,260.592 137.049,260.053 137.049,260.053C135.464,259.574 134.566,257.899 135.045,256.314C135.524,254.729 137.2,253.831 138.785,254.31L141.334,254.719ZM87.384,528.322C91.555,520.334 89.876,510.724 83.784,504.881C79.666,500.931 73.541,498.767 65.911,499.854C58.728,500.878 53.874,504.15 51.018,508.526C46.673,515.183 46.869,524.195 50.013,531.131C50.697,532.639 50.028,534.418 48.52,535.102C47.012,535.785 45.232,535.116 44.549,533.608C40.602,524.903 40.54,513.602 45.994,505.246C49.67,499.614 55.818,495.233 65.064,493.914C74.852,492.519 82.655,495.484 87.937,500.551C95.917,508.204 98.162,520.804 92.626,531.246C92.257,531.943 91.589,532.691 90.766,533.333C89.456,534.354 87.755,535.155 87.755,535.155C86.255,535.856 84.468,535.208 83.767,533.708C83.065,532.208 83.713,530.421 85.213,529.72L87.384,528.322ZM124.835,308.518C113.833,316.94 94.337,313.837 86.026,300.213C82.525,294.472 80.954,286.865 83.001,277.468C84.062,272.6 85.513,270.577 87.032,268.944C88.131,267.763 89.37,266.92 90.534,264.622C91.576,262.565 94.748,260.226 99.294,258.937C108.455,256.342 123.156,257.402 131.09,269.947C140.093,284.183 137.238,299.023 124.835,308.518ZM121.188,303.754C131.021,296.226 133.157,284.44 126.019,273.154C119.777,263.285 108.137,262.668 100.93,264.71C99.466,265.125 98.188,265.649 97.197,266.247C96.594,266.611 96.091,266.93 95.886,267.333C94.622,269.828 93.346,271.1 92.116,272.324C90.85,273.585 89.721,274.812 88.864,278.745C87.214,286.316 88.328,292.463 91.149,297.088C97.592,307.651 112.658,310.283 121.188,303.754ZM67.307,437.318C67.375,437.312 67.444,437.306 67.513,437.302C68.429,437.23 69.359,437.193 70.296,437.199C76.692,437.235 83.356,439.209 88.197,444.995C93.051,450.796 93.512,458.972 91.331,466.319C89.174,473.591 84.434,479.903 79.527,482.256C74.113,484.851 69.232,484.829 65.946,482.942C62.465,480.943 60.262,476.782 61.207,470.325C62.243,463.236 63.624,450.215 64.285,443.791C61.568,444.327 59.18,445.149 57.473,445.925C51.821,448.492 44.612,454.15 42.871,459.579C41.077,465.175 40.719,467.465 41.837,475.043C42.078,476.681 40.945,478.207 39.307,478.448C37.669,478.69 36.143,477.556 35.901,475.918C34.588,467.012 35.049,464.324 37.158,457.747C39.32,451.003 47.969,443.652 54.991,440.462C57.87,439.154 62.371,437.734 67.307,437.318ZM70.377,443.2C69.774,449.098 68.26,463.557 67.144,471.193C66.668,474.445 67.182,476.733 68.935,477.739C70.879,478.856 73.729,478.381 76.933,476.845C80.64,475.068 83.949,470.105 85.579,464.612C87.187,459.195 87.174,453.123 83.596,448.846C80.034,444.59 75.086,443.248 70.377,443.2ZM437.499,912.894C437.17,915.788 437.389,918.374 438.215,920.186C440.755,925.762 444.441,931.904 449.801,933.616C455.4,935.404 457.72,934.967 465.298,933.84C466.936,933.597 468.463,934.729 468.707,936.367C468.95,938.005 467.818,939.532 466.18,939.775C457.277,941.098 454.553,941.433 447.975,939.331C441.156,937.153 435.987,929.767 432.755,922.674C431.407,919.717 430.962,915.308 431.789,910.441C431.868,909.977 431.958,909.509 432.06,909.037L432.085,908.921C433.506,902.447 437.093,895.361 443.239,890.207C450.171,884.393 459.246,883.866 466.429,886.547C471.374,888.393 475.388,891.76 477.35,895.841C480.374,902.131 480.547,908.625 477.973,912.427C476.022,915.307 472.578,917.118 467.208,916.339C459.618,915.237 443.896,913.562 437.499,912.894ZM438.846,907.003C445.685,907.72 460.691,909.33 468.07,910.401C469.962,910.675 471.399,910.5 472.372,909.743C473.449,908.907 473.805,907.465 473.826,905.83C473.855,903.584 473.171,900.995 471.942,898.441C470.593,895.634 467.732,893.438 464.331,892.169C458.996,890.177 452.243,890.486 447.094,894.804C443.04,898.205 440.352,902.634 438.846,907.003ZM580.517,912.539C581.336,915.334 582.541,917.632 584.006,918.983C588.509,923.137 594.289,927.368 599.893,926.867C605.747,926.345 607.717,925.041 614.264,921.064C615.68,920.205 617.526,920.656 618.386,922.071C619.245,923.486 618.794,925.333 617.379,926.192C609.686,930.865 607.305,932.229 600.427,932.844C593.297,933.48 585.667,928.678 579.938,923.393C577.549,921.19 575.428,917.299 574.303,912.493C574.196,912.034 574.098,911.567 574.008,911.093L573.987,910.977C572.786,904.458 573.343,896.536 577.009,889.401C581.144,881.354 589.305,877.349 596.965,877.034C602.239,876.817 607.244,878.364 610.635,881.365C615.863,885.99 618.541,891.908 617.642,896.411C616.961,899.822 614.489,902.827 609.237,904.191C601.814,906.12 586.673,910.674 580.517,912.539ZM579.474,906.586C586.056,904.595 600.512,900.259 607.728,898.384C609.579,897.903 610.836,897.184 611.439,896.11C612.107,894.921 611.876,893.454 611.261,891.939C610.417,889.857 608.782,887.736 606.659,885.858C604.327,883.795 600.839,882.88 597.212,883.029C591.522,883.263 585.417,886.166 582.346,892.143C579.927,896.85 579.168,901.976 579.474,906.586ZM863.555,362.667L863.71,362.613L863.86,362.611C870.034,361.512 877.261,361.876 884.66,366.42C892.175,371.037 894.962,377.035 894.71,382.345C894.447,387.867 890.882,392.905 885.08,395.474C880.375,397.558 875.643,399.513 872.288,399.821C869.609,400.066 867.551,399.35 866.222,397.888C865.02,396.566 864.218,394.384 864.727,390.915C865.557,385.26 863.346,376.926 862.096,371.606C861.899,370.765 861.728,369.982 861.588,369.271C859.348,369.913 857.333,370.719 855.617,371.438C852.232,372.858 848.526,376.188 846.13,379.808C844.699,381.97 843.693,384.222 843.779,386.234C844.033,392.105 844.49,394.376 848.161,401.099C848.955,402.552 848.42,404.376 846.966,405.17C845.513,405.963 843.689,405.428 842.895,403.975C838.581,396.074 838.083,393.392 837.785,386.492C837.651,383.394 838.922,379.826 841.127,376.496C844.182,371.88 848.98,367.716 853.297,365.905C856.122,364.72 859.619,363.402 863.555,362.667ZM867.529,368.16C867.8,369.466 868.174,371.225 868.549,372.826C869.914,378.668 871.462,386.342 870.663,391.786C870.58,392.352 870.547,392.845 870.573,393.274C870.584,393.452 870.637,393.684 870.668,393.805C870.827,393.828 871.216,393.878 871.492,393.864C872.048,393.835 872.66,393.726 873.318,393.567C876.025,392.912 879.335,391.456 882.65,389.988C886.208,388.413 888.556,385.445 888.716,382.06C888.887,378.464 886.609,374.659 881.519,371.533C876.643,368.537 871.856,367.818 867.529,368.16ZM326.545,80.047C317.608,78.898 309.172,83.799 305.798,91.537C303.517,96.768 303.606,103.263 307.267,110.045C310.713,116.43 315.462,119.852 320.556,121.017C328.306,122.79 336.693,119.488 342.112,114.138C343.29,112.974 345.191,112.987 346.355,114.165C347.518,115.343 347.506,117.244 346.327,118.408C339.526,125.122 328.944,129.091 319.218,126.866C312.661,125.366 306.423,121.114 301.987,112.895C297.291,104.195 297.372,95.848 300.298,89.139C304.718,79.004 315.762,72.537 327.475,74.118C328.256,74.223 329.189,74.59 330.076,75.141C331.488,76.016 332.828,77.335 332.828,77.335C334.005,78.5 334.015,80.401 332.85,81.578C331.686,82.755 329.785,82.765 328.608,81.601L326.545,80.047ZM618.298,89.384C611.544,83.419 601.812,82.744 594.677,87.256C589.855,90.306 586.284,95.733 585.51,103.401C584.781,110.62 586.792,116.117 590.355,119.939C595.775,125.755 604.571,127.726 612.059,126.338C613.687,126.036 615.253,127.113 615.555,128.74C615.857,130.368 614.78,131.935 613.152,132.237C603.755,133.98 592.769,131.329 585.966,124.03C581.38,119.11 578.602,112.09 579.54,102.798C580.534,92.962 585.284,86.097 591.47,82.185C600.815,76.275 613.585,77.118 622.394,84.997C622.982,85.523 623.548,86.35 623.973,87.303C624.651,88.82 625.02,90.664 625.02,90.664C625.341,92.288 624.283,93.868 622.659,94.189C621.034,94.51 619.455,93.452 619.134,91.827L618.298,89.384ZM352.494,72.927C360.083,61.335 379.507,57.802 391.862,67.901C397.069,72.157 401.072,78.813 402.255,88.358C402.867,93.302 402.168,95.692 401.276,97.736C400.631,99.215 399.742,100.421 399.405,102.975C399.103,105.261 396.886,108.519 393.023,111.241C385.241,116.726 371.019,120.597 359.376,111.391C346.163,100.944 343.939,85.996 352.494,72.927ZM357.514,76.214C350.732,86.574 352.623,98.402 363.098,106.685C372.258,113.928 383.444,110.652 389.567,106.337C390.811,105.46 391.843,104.542 392.579,103.65C393.028,103.107 393.397,102.638 393.456,102.19C393.822,99.418 394.605,97.795 395.359,96.232C396.136,94.623 396.795,93.091 396.3,89.096C395.347,81.407 392.26,75.975 388.065,72.547C378.486,64.716 363.398,67.226 357.514,76.214ZM532.554,88.173C532.752,90.935 533.274,93.407 533.834,95.196C535.687,101.121 540.416,108.971 545.59,111.366C550.923,113.835 553.151,114.471 560.809,114.294C562.464,114.255 563.839,115.568 563.877,117.224C563.916,118.879 562.603,120.254 560.947,120.292C551.947,120.501 549.337,119.713 543.069,116.811C536.642,113.835 530.41,104.348 528.108,96.987C527.164,93.969 526.307,89.328 526.502,84.379C526.504,84.31 526.506,84.242 526.511,84.173C526.552,83.255 526.63,82.327 526.751,81.398C527.574,75.054 530.352,68.684 536.689,64.591C543.043,60.487 551.213,61.035 558.237,64.102C565.188,67.138 570.869,72.617 572.601,77.777C574.511,83.468 573.889,88.31 571.612,91.339C569.2,94.547 564.8,96.222 558.508,94.491C551.601,92.59 538.848,89.619 532.554,88.173ZM532.716,82.055C538.496,83.379 552.659,86.659 560.099,88.706C563.268,89.577 565.602,89.349 566.816,87.733C568.164,85.941 568.043,83.054 566.912,79.686C565.604,75.788 561.086,71.894 555.835,69.601C550.657,67.339 544.629,66.605 539.945,69.631C535.283,72.642 533.343,77.388 532.716,82.055ZM882.369,552.751L882.483,552.781C888.904,554.429 895.859,558.263 900.793,564.586C906.359,571.719 906.566,580.807 903.633,587.892C901.615,592.768 898.109,596.661 893.961,598.478C887.568,601.279 881.072,601.223 877.363,598.516C874.554,596.465 872.865,592.959 873.833,587.62C875.201,580.074 877.429,564.421 878.322,558.05C875.442,557.62 872.85,557.748 871.009,558.509C865.348,560.852 859.08,564.319 857.18,569.615C855.195,575.147 855.551,577.482 856.41,585.095C856.595,586.74 855.41,588.227 853.765,588.412C852.119,588.598 850.633,587.413 850.447,585.767C849.439,576.823 849.201,574.089 851.533,567.589C853.95,560.851 861.513,555.945 868.716,552.965C871.718,551.723 876.14,551.433 880.975,552.431C881.436,552.526 881.901,552.633 882.369,552.751ZM884.163,559.605C883.205,566.414 881.067,581.354 879.737,588.691C879.396,590.572 879.521,592.014 880.242,593.014C881.041,594.119 882.469,594.526 884.102,594.604C886.346,594.712 888.957,594.119 891.553,592.982C894.406,591.732 896.701,588.951 898.09,585.597C900.267,580.335 900.197,573.575 896.063,568.278C892.807,564.106 888.475,561.263 884.163,559.605ZM836.324,680.507L836.432,680.554C842.509,683.202 848.765,688.093 852.632,695.121C856.993,703.048 855.752,712.053 851.73,718.581C848.962,723.075 844.882,726.36 840.498,727.495C833.741,729.243 827.336,728.155 824.105,724.893C821.657,722.422 820.548,718.692 822.352,713.575C824.903,706.342 829.591,691.242 831.486,685.095C828.711,684.212 826.131,683.926 824.193,684.385C818.231,685.798 811.492,688.224 808.774,693.151C805.935,698.297 805.915,700.659 805.552,708.311C805.474,709.965 804.067,711.244 802.413,711.166C800.759,711.087 799.48,709.681 799.559,708.027C799.985,699.036 800.185,696.299 803.52,690.253C806.978,683.985 815.225,680.344 822.81,678.547C825.972,677.798 830.384,678.215 834.998,679.969C835.438,680.136 835.88,680.316 836.324,680.507ZM837.005,687.558C834.977,694.128 830.491,708.538 828.011,715.57C827.375,717.374 827.269,718.817 827.822,719.919C828.435,721.137 829.78,721.765 831.38,722.103C833.578,722.566 836.251,722.396 838.994,721.686C842.01,720.906 844.718,718.525 846.622,715.434C849.609,710.586 850.614,703.9 847.375,698.013C844.824,693.376 840.999,689.881 837.005,687.558ZM289.779,451.849C288.472,450.832 288.237,448.946 289.254,447.639C290.271,446.332 292.157,446.097 293.464,447.114C312.44,461.881 325.534,476.416 337.923,489.502C350.003,502.261 361.38,513.626 377.16,522.34C378.61,523.14 379.137,524.967 378.336,526.416C377.536,527.866 375.71,528.393 374.26,527.592C357.912,518.565 346.08,506.845 333.566,493.627C321.36,480.734 308.475,466.398 289.779,451.849ZM369.787,533.978C371.218,534.811 371.704,536.649 370.871,538.08C370.039,539.511 368.201,539.997 366.77,539.164C338.259,522.576 324.765,524.935 299.282,510.595C274.298,496.535 253.142,492.852 253.142,492.852C251.51,492.569 250.415,491.016 250.697,489.384C250.979,487.753 252.533,486.657 254.164,486.939C254.164,486.939 276.211,490.727 302.224,505.366C327.737,519.723 341.243,517.37 369.787,533.978ZM384.853,559.99C386.492,560.228 387.629,561.752 387.391,563.39C387.153,565.029 385.63,566.166 383.991,565.928C377.474,564.982 369.672,560.804 361.169,555.521C349.229,548.103 335.749,538.508 322.263,534.11C309.35,529.9 298.409,529.661 298.409,529.661C296.753,529.627 295.437,528.255 295.471,526.6C295.505,524.944 296.877,523.628 298.532,523.662C298.532,523.662 310.272,523.89 324.123,528.406C338.045,532.946 352.009,542.767 364.335,550.425C372.01,555.193 378.972,559.136 384.853,559.99ZM316.18,553.524C314.611,552.994 313.768,551.29 314.298,549.722C314.829,548.153 316.532,547.31 318.101,547.84C331.602,552.403 351.529,554.406 362.116,559.333C363.617,560.032 364.268,561.818 363.57,563.319C362.871,564.82 361.085,565.471 359.584,564.773C349.15,559.917 329.487,558.022 316.18,553.524ZM244.354,132.737C253.776,145.423 251.126,163.372 238.44,172.793C225.755,182.215 207.806,179.565 198.385,166.879C188.963,154.194 191.613,136.245 204.299,126.823C216.984,117.402 234.933,120.052 244.354,132.737ZM753.813,797.345C763.234,810.031 760.585,827.979 747.899,837.401C735.213,846.823 717.265,844.173 707.843,831.487C698.421,818.801 701.071,800.853 713.757,791.431C726.443,782.01 744.391,784.659 753.813,797.345Z" style="fill:rgb(56,48,72);"/>
    </g>
</svg>
